<svg id="visual" viewBox="0 0 960 300" width="960" height="300" xmlns="http://www.w3.org/2000/svg" xmlns:xlink="http://www.w3.org/1999/xlink" version="1.1"><rect x="0" y="0" width="960" height="300" fill="#3c31dd"></rect><path d="M0 52L14.5 54.5C29 57 58 62 87.2 69C116.3 76 145.7 85 174.8 81C204 77 233 60 262 51.2C291 42.3 320 41.7 349 45.7C378 49.7 407 58.3 436.2 60.3C465.3 62.3 494.7 57.7 523.8 53.5C553 49.3 582 45.7 611 48.7C640 51.7 669 61.3 698 70C727 78.7 756 86.3 785.2 85.7C814.3 85 843.7 76 872.8 71.5C902 67 931 67 945.5 67L960 67L960 301L945.5 301C931 301 902 301 872.8 301C843.7 301 814.3 301 785.2 301C756 301 727 301 698 301C669 301 640 301 611 301C582 301 553 301 523.8 301C494.7 301 465.3 301 436.2 301C407 301 378 301 349 301C320 301 291 301 262 301C233 301 204 301 174.8 301C145.7 301 116.3 301 87.2 301C58 301 29 301 14.5 301L0 301Z" fill="#5148d7"></path><path d="M0 143L14.5 135.7C29 128.3 58 113.7 87.2 110C116.3 106.3 145.7 113.7 174.8 121.2C204 128.7 233 136.3 262 138.5C291 140.7 320 137.3 349 130.8C378 124.3 407 114.7 436.2 112C465.3 109.3 494.7 113.7 523.8 117.8C553 122 582 126 611 125.3C640 124.7 669 119.3 698 116.2C727 113 756 112 785.2 104.8C814.3 97.7 843.7 84.3 872.8 77.8C902 71.3 931 71.7 945.5 71.8L960 72L960 301L945.5 301C931 301 902 301 872.8 301C843.7 301 814.3 301 785.2 301C756 301 727 301 698 301C669 301 640 301 611 301C582 301 553 301 523.8 301C494.7 301 465.3 301 436.2 301C407 301 378 301 349 301C320 301 291 301 262 301C233 301 204 301 174.8 301C145.7 301 116.3 301 87.2 301C58 301 29 301 14.5 301L0 301Z" fill="#9337c8"></path><path d="M0 120L14.5 121C29 122 58 124 87.2 132C116.3 140 145.7 154 174.8 161C204 168 233 168 262 160.8C291 153.7 320 139.3 349 133.3C378 127.3 407 129.7 436.2 134.7C465.3 139.7 494.7 147.3 523.8 150C553 152.7 582 150.3 611 149C640 147.7 669 147.3 698 145.8C727 144.3 756 141.7 785.2 143.3C814.3 145 843.7 151 872.8 157.3C902 163.7 931 170.3 945.5 173.7L960 177L960 301L945.5 301C931 301 902 301 872.8 301C843.7 301 814.3 301 785.2 301C756 301 727 301 698 301C669 301 640 301 611 301C582 301 553 301 523.8 301C494.7 301 465.3 301 436.2 301C407 301 378 301 349 301C320 301 291 301 262 301C233 301 204 301 174.8 301C145.7 301 116.3 301 87.2 301C58 301 29 301 14.5 301L0 301Z" fill="#be1cb4"></path><path d="M0 160L14.5 163C29 166 58 172 87.2 176C116.3 180 145.7 182 174.8 187.7C204 193.3 233 202.7 262 207.2C291 211.7 320 211.3 349 209C378 206.7 407 202.3 436.2 195.7C465.3 189 494.7 180 523.8 179.8C553 179.7 582 188.3 611 185.5C640 182.7 669 168.3 698 164.7C727 161 756 168 785.2 174.3C814.3 180.7 843.7 186.3 872.8 185.5C902 184.7 931 177.3 945.5 173.7L960 170L960 301L945.5 301C931 301 902 301 872.8 301C843.7 301 814.3 301 785.2 301C756 301 727 301 698 301C669 301 640 301 611 301C582 301 553 301 523.8 301C494.7 301 465.3 301 436.2 301C407 301 378 301 349 301C320 301 291 301 262 301C233 301 204 301 174.8 301C145.7 301 116.3 301 87.2 301C58 301 29 301 14.5 301L0 301Z" fill="#dd009b"></path><path d="M0 236L14.5 231.3C29 226.7 58 217.3 87.2 217.5C116.3 217.7 145.7 227.3 174.8 234C204 240.7 233 244.3 262 241.8C291 239.3 320 230.7 349 226.2C378 221.7 407 221.3 436.2 219.5C465.3 217.7 494.7 214.3 523.8 216C553 217.7 582 224.3 611 230.3C640 236.3 669 241.7 698 239.2C727 236.7 756 226.3 785.2 219.3C814.3 212.3 843.7 208.7 872.8 213.8C902 219 931 233 945.5 240L960 247L960 301L945.5 301C931 301 902 301 872.8 301C843.7 301 814.3 301 785.2 301C756 301 727 301 698 301C669 301 640 301 611 301C582 301 553 301 523.8 301C494.7 301 465.3 301 436.2 301C407 301 378 301 349 301C320 301 291 301 262 301C233 301 204 301 174.8 301C145.7 301 116.3 301 87.2 301C58 301 29 301 14.5 301L0 301Z" fill="#f20081"></path><path d="M0 274L14.5 268.2C29 262.3 58 250.7 87.2 250.5C116.3 250.3 145.7 261.7 174.8 266.2C204 270.7 233 268.3 262 262.3C291 256.3 320 246.7 349 248.3C378 250 407 263 436.2 263.8C465.3 264.7 494.7 253.3 523.8 253.5C553 253.7 582 265.3 611 269C640 272.7 669 268.3 698 266.5C727 264.7 756 265.3 785.2 267.2C814.3 269 843.7 272 872.8 273.8C902 275.7 931 276.3 945.5 276.7L960 277L960 301L945.5 301C931 301 902 301 872.8 301C843.7 301 814.3 301 785.2 301C756 301 727 301 698 301C669 301 640 301 611 301C582 301 553 301 523.8 301C494.7 301 465.3 301 436.2 301C407 301 378 301 349 301C320 301 291 301 262 301C233 301 204 301 174.8 301C145.7 301 116.3 301 87.2 301C58 301 29 301 14.5 301L0 301Z" fill="#ff0066"></path></svg>