<svg id="visual" viewBox="0 0 960 300" width="960" height="300" xmlns="http://www.w3.org/2000/svg" xmlns:xlink="http://www.w3.org/1999/xlink" version="1.1"><rect x="0" y="0" width="960" height="300" fill="#202731"></rect><path d="M0 112L14.5 104.5C29 97 58 82 87.2 77C116.3 72 145.7 77 174.8 74.7C204 72.3 233 62.7 262 54C291 45.3 320 37.7 349 44.3C378 51 407 72 436.2 86.2C465.3 100.3 494.7 107.7 523.8 103.7C553 99.7 582 84.3 611 78.7C640 73 669 77 698 74.3C727 71.7 756 62.3 785.2 58.5C814.3 54.7 843.7 56.3 872.8 61C902 65.7 931 73.3 945.5 77.2L960 81L960 301L945.5 301C931 301 902 301 872.8 301C843.7 301 814.3 301 785.2 301C756 301 727 301 698 301C669 301 640 301 611 301C582 301 553 301 523.8 301C494.7 301 465.3 301 436.2 301C407 301 378 301 349 301C320 301 291 301 262 301C233 301 204 301 174.8 301C145.7 301 116.3 301 87.2 301C58 301 29 301 14.5 301L0 301Z" fill="#1e5f65"></path><path d="M0 87L14.5 94.2C29 101.3 58 115.7 87.2 123.5C116.3 131.3 145.7 132.7 174.8 126.3C204 120 233 106 262 99C291 92 320 92 349 88.5C378 85 407 78 436.2 86.2C465.3 94.3 494.7 117.7 523.8 128.7C553 139.7 582 138.3 611 134C640 129.7 669 122.3 698 119.5C727 116.7 756 118.3 785.2 111.2C814.3 104 843.7 88 872.8 81C902 74 931 76 945.5 77L960 78L960 301L945.5 301C931 301 902 301 872.8 301C843.7 301 814.3 301 785.2 301C756 301 727 301 698 301C669 301 640 301 611 301C582 301 553 301 523.8 301C494.7 301 465.3 301 436.2 301C407 301 378 301 349 301C320 301 291 301 262 301C233 301 204 301 174.8 301C145.7 301 116.3 301 87.2 301C58 301 29 301 14.5 301L0 301Z" fill="#1b6d72"></path><path d="M0 175L14.5 166.3C29 157.7 58 140.3 87.2 132.8C116.3 125.3 145.7 127.7 174.8 137.8C204 148 233 166 262 165.5C291 165 320 146 349 135.8C378 125.7 407 124.3 436.2 128.8C465.3 133.3 494.7 143.7 523.8 144.3C553 145 582 136 611 139.2C640 142.3 669 157.7 698 159C727 160.3 756 147.7 785.2 139C814.3 130.3 843.7 125.7 872.8 125.3C902 125 931 129 945.5 131L960 133L960 301L945.5 301C931 301 902 301 872.8 301C843.7 301 814.3 301 785.2 301C756 301 727 301 698 301C669 301 640 301 611 301C582 301 553 301 523.8 301C494.7 301 465.3 301 436.2 301C407 301 378 301 349 301C320 301 291 301 262 301C233 301 204 301 174.8 301C145.7 301 116.3 301 87.2 301C58 301 29 301 14.5 301L0 301Z" fill="#177c80"></path><path d="M0 174L14.5 172C29 170 58 166 87.2 172.5C116.3 179 145.7 196 174.8 195C204 194 233 175 262 170.2C291 165.3 320 174.7 349 182C378 189.3 407 194.7 436.2 191.2C465.3 187.7 494.7 175.3 523.8 175.3C553 175.3 582 187.7 611 190C640 192.3 669 184.7 698 182.3C727 180 756 183 785.2 184.2C814.3 185.3 843.7 184.7 872.8 183.3C902 182 931 180 945.5 179L960 178L960 301L945.5 301C931 301 902 301 872.8 301C843.7 301 814.3 301 785.2 301C756 301 727 301 698 301C669 301 640 301 611 301C582 301 553 301 523.8 301C494.7 301 465.3 301 436.2 301C407 301 378 301 349 301C320 301 291 301 262 301C233 301 204 301 174.8 301C145.7 301 116.3 301 87.2 301C58 301 29 301 14.5 301L0 301Z" fill="#118a8c"></path><path d="M0 249L14.5 247.7C29 246.3 58 243.7 87.2 235.5C116.3 227.3 145.7 213.7 174.8 208.7C204 203.7 233 207.3 262 214.3C291 221.3 320 231.7 349 234.8C378 238 407 234 436.2 230.2C465.3 226.3 494.7 222.7 523.8 221.5C553 220.3 582 221.7 611 223.2C640 224.7 669 226.3 698 221.2C727 216 756 204 785.2 204.8C814.3 205.7 843.7 219.3 872.8 225.3C902 231.3 931 229.7 945.5 228.8L960 228L960 301L945.5 301C931 301 902 301 872.8 301C843.7 301 814.3 301 785.2 301C756 301 727 301 698 301C669 301 640 301 611 301C582 301 553 301 523.8 301C494.7 301 465.3 301 436.2 301C407 301 378 301 349 301C320 301 291 301 262 301C233 301 204 301 174.8 301C145.7 301 116.3 301 87.2 301C58 301 29 301 14.5 301L0 301Z" fill="#089a99"></path><path d="M0 249L14.5 254C29 259 58 269 87.2 268.8C116.3 268.7 145.7 258.3 174.8 251.5C204 244.7 233 241.3 262 242.8C291 244.3 320 250.7 349 250.5C378 250.3 407 243.7 436.2 246.5C465.3 249.3 494.7 261.7 523.8 265.3C553 269 582 264 611 262.5C640 261 669 263 698 260.3C727 257.7 756 250.3 785.2 249.5C814.3 248.7 843.7 254.3 872.8 252.8C902 251.3 931 242.7 945.5 238.3L960 234L960 301L945.5 301C931 301 902 301 872.8 301C843.7 301 814.3 301 785.2 301C756 301 727 301 698 301C669 301 640 301 611 301C582 301 553 301 523.8 301C494.7 301 465.3 301 436.2 301C407 301 378 301 349 301C320 301 291 301 262 301C233 301 204 301 174.8 301C145.7 301 116.3 301 87.2 301C58 301 29 301 14.5 301L0 301Z" fill="#00a9a5"></path></svg>