<svg id="visual" viewBox="0 0 960 300" width="960" height="300" xmlns="http://www.w3.org/2000/svg" xmlns:xlink="http://www.w3.org/1999/xlink" version="1.1"><rect x="0" y="0" width="960" height="300" fill="#202731"></rect><path d="M0 92L14.5 82.2C29 72.3 58 52.7 87.2 53.3C116.3 54 145.7 75 174.8 84.8C204 94.7 233 93.3 262 82.7C291 72 320 52 349 53.2C378 54.3 407 76.7 436.2 81.2C465.3 85.7 494.7 72.3 523.8 66C553 59.7 582 60.3 611 68.5C640 76.7 669 92.3 698 87.5C727 82.7 756 57.3 785.2 53.3C814.3 49.3 843.7 66.7 872.8 80.8C902 95 931 106 945.5 111.5L960 117L960 301L945.5 301C931 301 902 301 872.8 301C843.7 301 814.3 301 785.2 301C756 301 727 301 698 301C669 301 640 301 611 301C582 301 553 301 523.8 301C494.7 301 465.3 301 436.2 301C407 301 378 301 349 301C320 301 291 301 262 301C233 301 204 301 174.8 301C145.7 301 116.3 301 87.2 301C58 301 29 301 14.5 301L0 301Z" fill="#653e1e"></path><path d="M0 116L14.5 118.2C29 120.3 58 124.7 87.2 123.7C116.3 122.7 145.7 116.3 174.8 112C204 107.7 233 105.3 262 103.3C291 101.3 320 99.7 349 104.8C378 110 407 122 436.2 126.3C465.3 130.7 494.7 127.3 523.8 120.5C553 113.7 582 103.3 611 98.7C640 94 669 95 698 98C727 101 756 106 785.2 109.7C814.3 113.3 843.7 115.7 872.8 112.3C902 109 931 100 945.5 95.5L960 91L960 301L945.5 301C931 301 902 301 872.8 301C843.7 301 814.3 301 785.2 301C756 301 727 301 698 301C669 301 640 301 611 301C582 301 553 301 523.8 301C494.7 301 465.3 301 436.2 301C407 301 378 301 349 301C320 301 291 301 262 301C233 301 204 301 174.8 301C145.7 301 116.3 301 87.2 301C58 301 29 301 14.5 301L0 301Z" fill="#7a421d"></path><path d="M0 177L14.5 176.3C29 175.7 58 174.3 87.2 167.7C116.3 161 145.7 149 174.8 144.8C204 140.7 233 144.3 262 149.8C291 155.3 320 162.7 349 159.5C378 156.3 407 142.7 436.2 135.3C465.3 128 494.7 127 523.8 124.3C553 121.7 582 117.3 611 117C640 116.7 669 120.3 698 125.8C727 131.3 756 138.7 785.2 147C814.3 155.3 843.7 164.7 872.8 169.3C902 174 931 174 945.5 174L960 174L960 301L945.5 301C931 301 902 301 872.8 301C843.7 301 814.3 301 785.2 301C756 301 727 301 698 301C669 301 640 301 611 301C582 301 553 301 523.8 301C494.7 301 465.3 301 436.2 301C407 301 378 301 349 301C320 301 291 301 262 301C233 301 204 301 174.8 301C145.7 301 116.3 301 87.2 301C58 301 29 301 14.5 301L0 301Z" fill="#91451e"></path><path d="M0 194L14.5 194.7C29 195.3 58 196.7 87.2 195.5C116.3 194.3 145.7 190.7 174.8 183.5C204 176.3 233 165.7 262 166.5C291 167.3 320 179.7 349 185.2C378 190.7 407 189.3 436.2 187.2C465.3 185 494.7 182 523.8 183C553 184 582 189 611 186.8C640 184.7 669 175.3 698 177.7C727 180 756 194 785.2 197C814.3 200 843.7 192 872.8 189.3C902 186.7 931 189.3 945.5 190.7L960 192L960 301L945.5 301C931 301 902 301 872.8 301C843.7 301 814.3 301 785.2 301C756 301 727 301 698 301C669 301 640 301 611 301C582 301 553 301 523.8 301C494.7 301 465.3 301 436.2 301C407 301 378 301 349 301C320 301 291 301 262 301C233 301 204 301 174.8 301C145.7 301 116.3 301 87.2 301C58 301 29 301 14.5 301L0 301Z" fill="#a94621"></path><path d="M0 246L14.5 242.2C29 238.3 58 230.7 87.2 231.2C116.3 231.7 145.7 240.3 174.8 239.2C204 238 233 227 262 218.8C291 210.7 320 205.3 349 209.8C378 214.3 407 228.7 436.2 228.7C465.3 228.7 494.7 214.3 523.8 206.8C553 199.3 582 198.7 611 206.5C640 214.3 669 230.7 698 236C727 241.3 756 235.7 785.2 231.2C814.3 226.7 843.7 223.3 872.8 224.3C902 225.3 931 230.7 945.5 233.3L960 236L960 301L945.5 301C931 301 902 301 872.8 301C843.7 301 814.3 301 785.2 301C756 301 727 301 698 301C669 301 640 301 611 301C582 301 553 301 523.8 301C494.7 301 465.3 301 436.2 301C407 301 378 301 349 301C320 301 291 301 262 301C233 301 204 301 174.8 301C145.7 301 116.3 301 87.2 301C58 301 29 301 14.5 301L0 301Z" fill="#c34427"></path><path d="M0 259L14.5 259C29 259 58 259 87.2 258.7C116.3 258.3 145.7 257.7 174.8 255.3C204 253 233 249 262 245.3C291 241.7 320 238.3 349 238C378 237.7 407 240.3 436.2 247.5C465.3 254.7 494.7 266.3 523.8 272.2C553 278 582 278 611 276.3C640 274.7 669 271.3 698 271.3C727 271.3 756 274.7 785.2 272.7C814.3 270.7 843.7 263.3 872.8 259.3C902 255.3 931 254.7 945.5 254.3L960 254L960 301L945.5 301C931 301 902 301 872.8 301C843.7 301 814.3 301 785.2 301C756 301 727 301 698 301C669 301 640 301 611 301C582 301 553 301 523.8 301C494.7 301 465.3 301 436.2 301C407 301 378 301 349 301C320 301 291 301 262 301C233 301 204 301 174.8 301C145.7 301 116.3 301 87.2 301C58 301 29 301 14.5 301L0 301Z" fill="#dd3f31"></path></svg>