<svg id="visual" viewBox="0 0 960 300" width="960" height="300" xmlns="http://www.w3.org/2000/svg" xmlns:xlink="http://www.w3.org/1999/xlink" version="1.1"><rect x="0" y="0" width="960" height="300" fill="#202731"></rect><path d="M0 87L14.5 86.2C29 85.3 58 83.7 87.2 76.3C116.3 69 145.7 56 174.8 59C204 62 233 81 262 86C291 91 320 82 349 76.2C378 70.3 407 67.7 436.2 66C465.3 64.3 494.7 63.7 523.8 67.2C553 70.7 582 78.3 611 85.7C640 93 669 100 698 101.8C727 103.7 756 100.3 785.2 90.7C814.3 81 843.7 65 872.8 59.5C902 54 931 59 945.5 61.5L960 64L960 301L945.5 301C931 301 902 301 872.8 301C843.7 301 814.3 301 785.2 301C756 301 727 301 698 301C669 301 640 301 611 301C582 301 553 301 523.8 301C494.7 301 465.3 301 436.2 301C407 301 378 301 349 301C320 301 291 301 262 301C233 301 204 301 174.8 301C145.7 301 116.3 301 87.2 301C58 301 29 301 14.5 301L0 301Z" fill="#333060"></path><path d="M0 107L14.5 107.3C29 107.7 58 108.3 87.2 115.7C116.3 123 145.7 137 174.8 143.2C204 149.3 233 147.7 262 147.3C291 147 320 148 349 145.8C378 143.7 407 138.3 436.2 134.2C465.3 130 494.7 127 523.8 121.3C553 115.7 582 107.3 611 110C640 112.7 669 126.3 698 134.5C727 142.7 756 145.3 785.2 135.8C814.3 126.3 843.7 104.7 872.8 95.7C902 86.7 931 90.3 945.5 92.2L960 94L960 301L945.5 301C931 301 902 301 872.8 301C843.7 301 814.3 301 785.2 301C756 301 727 301 698 301C669 301 640 301 611 301C582 301 553 301 523.8 301C494.7 301 465.3 301 436.2 301C407 301 378 301 349 301C320 301 291 301 262 301C233 301 204 301 174.8 301C145.7 301 116.3 301 87.2 301C58 301 29 301 14.5 301L0 301Z" fill="#583474"></path><path d="M0 163L14.5 164.5C29 166 58 169 87.2 162C116.3 155 145.7 138 174.8 131.8C204 125.7 233 130.3 262 140.7C291 151 320 167 349 173.2C378 179.3 407 175.7 436.2 166.8C465.3 158 494.7 144 523.8 143.8C553 143.7 582 157.3 611 165.3C640 173.3 669 175.7 698 170.2C727 164.7 756 151.3 785.2 150.2C814.3 149 843.7 160 872.8 161C902 162 931 153 945.5 148.5L960 144L960 301L945.5 301C931 301 902 301 872.8 301C843.7 301 814.3 301 785.2 301C756 301 727 301 698 301C669 301 640 301 611 301C582 301 553 301 523.8 301C494.7 301 465.3 301 436.2 301C407 301 378 301 349 301C320 301 291 301 262 301C233 301 204 301 174.8 301C145.7 301 116.3 301 87.2 301C58 301 29 301 14.5 301L0 301Z" fill="#833280"></path><path d="M0 183L14.5 181.3C29 179.7 58 176.3 87.2 178.3C116.3 180.3 145.7 187.7 174.8 187C204 186.3 233 177.7 262 179C291 180.3 320 191.7 349 191.7C378 191.7 407 180.3 436.2 177.8C465.3 175.3 494.7 181.7 523.8 181.5C553 181.3 582 174.7 611 176.3C640 178 669 188 698 185.5C727 183 756 168 785.2 163.5C814.3 159 843.7 165 872.8 168.5C902 172 931 173 945.5 173.5L960 174L960 301L945.5 301C931 301 902 301 872.8 301C843.7 301 814.3 301 785.2 301C756 301 727 301 698 301C669 301 640 301 611 301C582 301 553 301 523.8 301C494.7 301 465.3 301 436.2 301C407 301 378 301 349 301C320 301 291 301 262 301C233 301 204 301 174.8 301C145.7 301 116.3 301 87.2 301C58 301 29 301 14.5 301L0 301Z" fill="#af2882"></path><path d="M0 214L14.5 211.2C29 208.3 58 202.7 87.2 199C116.3 195.3 145.7 193.7 174.8 202C204 210.3 233 228.7 262 237.5C291 246.3 320 245.7 349 240.7C378 235.7 407 226.3 436.2 218.8C465.3 211.3 494.7 205.7 523.8 203.8C553 202 582 204 611 206.3C640 208.7 669 211.3 698 210.3C727 209.3 756 204.7 785.2 210.3C814.3 216 843.7 232 872.8 235.2C902 238.3 931 228.7 945.5 223.8L960 219L960 301L945.5 301C931 301 902 301 872.8 301C843.7 301 814.3 301 785.2 301C756 301 727 301 698 301C669 301 640 301 611 301C582 301 553 301 523.8 301C494.7 301 465.3 301 436.2 301C407 301 378 301 349 301C320 301 291 301 262 301C233 301 204 301 174.8 301C145.7 301 116.3 301 87.2 301C58 301 29 301 14.5 301L0 301Z" fill="#da1379"></path><path d="M0 275L14.5 268.2C29 261.3 58 247.7 87.2 248C116.3 248.3 145.7 262.7 174.8 262.7C204 262.7 233 248.3 262 241.7C291 235 320 236 349 241.2C378 246.3 407 255.7 436.2 258.7C465.3 261.7 494.7 258.3 523.8 253.8C553 249.3 582 243.7 611 247.2C640 250.7 669 263.3 698 269.7C727 276 756 276 785.2 274C814.3 272 843.7 268 872.8 265.5C902 263 931 262 945.5 261.5L960 261L960 301L945.5 301C931 301 902 301 872.8 301C843.7 301 814.3 301 785.2 301C756 301 727 301 698 301C669 301 640 301 611 301C582 301 553 301 523.8 301C494.7 301 465.3 301 436.2 301C407 301 378 301 349 301C320 301 291 301 262 301C233 301 204 301 174.8 301C145.7 301 116.3 301 87.2 301C58 301 29 301 14.5 301L0 301Z" fill="#ff0066"></path></svg>