<svg width="512" height="512" xmlns="http://www.w3.org/2000/svg" xml:space="preserve" version="1.1">

 <g>
  <title>Layer 1</title>
  <g id="C_-_65_x2C__Employee_x2C__hr_x2C__human_x2C__hunting_x2C__personal_x2C__resources_x2C__resume_x2C__search">
   <g id="svg_1">
    <path fill="#F3F8F2" id="svg_2" d="m234.281,221.882c0.003,-0.076 0.01,-0.151 0.013,-0.227c0.041,-1.102 0.105,-2.201 0.194,-3.3c0.016,-0.19 0.032,-0.38 0.049,-0.57c0.089,-1.011 0.198,-2.02 0.328,-3.027c0.041,-0.32 0.086,-0.641 0.131,-0.96c0.121,-0.852 0.253,-1.701 0.403,-2.549c0.088,-0.5 0.184,-0.999 0.281,-1.497c0.13,-0.658 0.264,-1.314 0.413,-1.968c0.156,-0.698 0.326,-1.391 0.5,-2.083c0.117,-0.458 0.233,-0.915 0.359,-1.37c0.242,-0.886 0.504,-1.764 0.779,-2.639c0.085,-0.272 0.167,-0.543 0.256,-0.814c0.342,-1.05 0.708,-2.088 1.096,-3.12c0.042,-0.113 0.082,-0.226 0.125,-0.339c1.368,-3.593 3.004,-7.076 4.908,-10.421c-3.53,-1.645 -7.374,-2.5 -11.317,-2.5l-71.176,0c-15.014,0 -27.23,12.145 -27.23,27.073l0,35.06l103.127,0c-0.375,-1.23 -0.715,-2.47 -1.026,-3.72c-0.009,-0.034 -0.017,-0.069 -0.025,-0.104c-0.281,-1.136 -0.537,-2.279 -0.765,-3.429c-0.052,-0.264 -0.1,-0.527 -0.149,-0.791c-0.168,-0.899 -0.325,-1.801 -0.46,-2.707c-0.077,-0.506 -0.144,-1.012 -0.21,-1.519c-0.084,-0.653 -0.165,-1.307 -0.231,-1.963c-0.078,-0.741 -0.142,-1.482 -0.198,-2.225c-0.03,-0.423 -0.061,-0.846 -0.085,-1.271c-0.055,-0.944 -0.091,-1.889 -0.111,-2.834c-0.004,-0.241 -0.009,-0.48 -0.012,-0.721c-0.012,-1.08 0,-2.158 0.032,-3.236c0.001,-0.076 -0.002,-0.152 0.001,-0.229zm-32.748,2.621l-17.964,0l0,-17.879l17.964,0l0,17.879z"/>
    <path fill="#F3F8F2" id="svg_3" d="m197.053,148.307c17.224,0 31.235,-13.937 31.235,-31.067c0,-17.128 -14.012,-31.064 -31.235,-31.064c-17.223,0 -31.235,13.936 -31.235,31.064c-0.001,17.131 14.012,31.067 31.235,31.067z"/>
    <path fill="#F3F8F2" id="svg_4" d="m244.062,232.328c0.099,0.845 0.219,1.685 0.35,2.523c0.04,0.253 0.074,0.506 0.117,0.759c0.126,0.754 0.273,1.502 0.425,2.25c0.105,0.514 0.216,1.029 0.334,1.542c0.045,0.196 0.095,0.39 0.141,0.585c0.274,1.143 0.574,2.282 0.91,3.414c0.005,0.019 0.011,0.038 0.017,0.056c0.575,1.929 1.238,3.841 1.993,5.73c0.112,0.221 0.202,0.457 0.279,0.696c3.044,7.366 7.419,14.206 13.043,20.203c12.653,13.487 30.551,21.223 49.106,21.223c11.645,0 22.916,-2.978 32.869,-8.55c0.172,-0.097 0.344,-0.194 0.516,-0.292c0.777,-0.444 1.547,-0.9 2.307,-1.376c0.046,-0.029 0.094,-0.057 0.141,-0.086c0.782,-0.492 1.552,-1.006 2.314,-1.531c0.2,-0.139 0.398,-0.277 0.596,-0.418c0.688,-0.482 1.366,-0.978 2.035,-1.486c0.081,-0.063 0.164,-0.121 0.245,-0.184c0.722,-0.555 1.428,-1.13 2.128,-1.715c0.196,-0.165 0.393,-0.33 0.588,-0.497c0.704,-0.603 1.401,-1.214 2.084,-1.849c0.002,-0.002 0.004,-0.004 0.008,-0.006l0,-0.001c0.723,-0.671 1.421,-1.36 2.107,-2.057c0.178,-0.18 0.354,-0.358 0.529,-0.54c0.647,-0.671 1.283,-1.351 1.9,-2.044c0.17,-0.192 0.334,-0.392 0.503,-0.586c0.438,-0.503 0.866,-1.014 1.288,-1.529c0.26,-0.318 0.52,-0.636 0.773,-0.959c0.38,-0.483 0.749,-0.973 1.115,-1.465c0.422,-0.568 0.834,-1.144 1.236,-1.725c0.18,-0.255 0.355,-0.513 0.529,-0.771c0.33,-0.489 0.657,-0.98 0.973,-1.478c0.007,-0.011 0.016,-0.02 0.021,-0.028c6.303,-9.909 9.885,-21.34 10.297,-33.372c0.61,-17.831 -5.791,-34.831 -18.025,-47.872c-12.655,-13.49 -30.557,-21.227 -49.111,-21.227c-17.068,0 -33.342,6.389 -45.822,17.99c-3.98,3.7 -7.441,7.806 -10.358,12.223c-0.008,0.013 -0.012,0.026 -0.021,0.039c-0.313,0.477 -0.618,0.958 -0.918,1.441c-0.113,0.182 -0.225,0.364 -0.336,0.546c-0.985,1.614 -1.896,3.263 -2.733,4.94c-0.059,0.117 -0.114,0.236 -0.172,0.354c-0.481,0.982 -0.937,1.975 -1.368,2.975c-0.094,0.219 -0.189,0.438 -0.281,0.658c-0.221,0.526 -0.437,1.053 -0.643,1.584c-0.249,0.644 -0.49,1.29 -0.718,1.94c-0.146,0.417 -0.284,0.836 -0.422,1.255c-0.188,0.571 -0.37,1.144 -0.543,1.721c-0.086,0.287 -0.176,0.574 -0.259,0.862c-0.248,0.873 -0.477,1.752 -0.689,2.637c-0.041,0.167 -0.081,0.334 -0.12,0.501c-0.969,4.182 -1.544,8.487 -1.695,12.871c-0.114,3.315 0.017,6.6 0.38,9.838c0.012,0.097 0.025,0.192 0.037,0.288z"/>
    <path fill="#F3F8F2" id="svg_5" d="m428.545,390.334c-0.07,0.044 -0.147,0.071 -0.221,0.111c-0.192,0.104 -0.385,0.207 -0.588,0.282c-0.099,0.037 -0.201,0.055 -0.302,0.085c-0.183,0.055 -0.364,0.111 -0.551,0.143c-0.115,0.02 -0.231,0.021 -0.347,0.031c-0.146,0.014 -0.292,0.041 -0.439,0.041c-0.027,0 -0.055,-0.008 -0.082,-0.009c-0.17,-0.003 -0.336,-0.029 -0.504,-0.05c-0.135,-0.018 -0.271,-0.024 -0.404,-0.053c-0.175,-0.038 -0.344,-0.102 -0.514,-0.159c-0.121,-0.041 -0.246,-0.069 -0.363,-0.121c-0.187,-0.08 -0.36,-0.19 -0.536,-0.295c-0.095,-0.056 -0.192,-0.099 -0.284,-0.161c-0.26,-0.183 -0.506,-0.392 -0.73,-0.633l-61.289,-65.334c-0.852,-0.908 -1.309,-2.12 -1.266,-3.366s0.581,-2.424 1.494,-3.272l3.112,-2.892l-20.386,-21.731c-10.354,5.041 -21.792,7.728 -33.568,7.728c-21.135,0 -41.523,-8.814 -55.941,-24.183c-5.761,-6.143 -10.368,-13.063 -13.766,-20.495l-111.364,0c-2.587,0 -4.686,-2.098 -4.686,-4.686l0,-39.745c0,-20.095 16.419,-36.444 36.602,-36.444l71.176,0c5.781,0 11.394,1.383 16.484,3.992c2.746,-3.671 5.827,-7.135 9.261,-10.325c14.218,-13.217 32.758,-20.496 52.201,-20.496c21.135,0 41.525,8.815 55.945,24.186c13.953,14.872 21.254,34.263 20.557,54.604c-0.428,12.491 -3.852,24.413 -9.881,34.976l20.489,21.843l3.148,-2.926c0.944,-0.879 2.154,-1.292 3.349,-1.251c1.195,0.041 2.375,0.537 3.258,1.478l22.214,23.678l0,-263.4l-331.374,0l0,383.911l331.375,0l0,-36.12l-0.536,0.499c-0.233,0.214 -0.482,0.4 -0.743,0.559zm-231.492,-313.529c22.391,0 40.606,18.139 40.606,40.435c0,22.297 -18.216,40.438 -40.606,40.438s-40.606,-18.141 -40.606,-40.438c-0.001,-22.296 18.215,-40.435 40.606,-40.435zm-58.388,241.329l98.789,0c2.588,0 4.686,2.098 4.686,4.686s-2.098,4.686 -4.686,4.686l-98.789,0c-2.587,0 -4.685,-2.098 -4.685,-4.686s2.098,-4.686 4.685,-4.686zm179.61,63.001l-179.61,0c-2.587,0 -4.685,-2.098 -4.685,-4.686s2.098,-4.686 4.685,-4.686l179.61,0c2.588,0 4.686,2.098 4.686,4.686s-2.098,4.686 -4.686,4.686zm0,-26.811l-179.61,0c-2.587,0 -4.685,-2.098 -4.685,-4.686c0,-2.589 2.098,-4.686 4.685,-4.686l179.61,0c2.588,0 4.686,2.097 4.686,4.686c0,2.589 -2.098,4.686 -4.686,4.686z"/>
    <path fill="#F3F8F2" id="svg_6" d="m376.859,303.413l14.127,-13.133l-18.919,-20.17c-0.138,0.183 -0.284,0.356 -0.423,0.536c-0.468,0.609 -0.939,1.216 -1.427,1.813c-0.32,0.393 -0.651,0.776 -0.979,1.164c-0.417,0.489 -0.832,0.981 -1.262,1.463c-0.475,0.53 -0.965,1.046 -1.453,1.563c-0.318,0.337 -0.629,0.681 -0.955,1.013c-0.842,0.859 -1.701,1.702 -2.585,2.522c-0.84,0.779 -1.697,1.537 -2.569,2.277c-0.338,0.287 -0.686,0.56 -1.027,0.84c-0.543,0.446 -1.086,0.893 -1.641,1.322c-0.396,0.308 -0.801,0.603 -1.202,0.901c-0.519,0.387 -1.037,0.771 -1.563,1.145c-0.418,0.295 -0.841,0.579 -1.264,0.864c-0.326,0.222 -0.646,0.454 -0.977,0.67l18.856,20.1l5.263,-4.89z"/>
    <path fill="#F3F8F2" id="svg_7" d="m431.116,319.958c-0.009,-0.008 -0.018,-0.014 -0.024,-0.022l-27.127,-28.917l-21.371,19.859l-8.031,7.467c-0.008,0.006 -0.016,0.011 -0.023,0.017l-3.092,2.874l54.875,58.499l4.996,-4.644c0.002,-0.002 0.004,-0.003 0.006,-0.005l27.519,-25.574l-27.728,-29.554zm-5.071,38.62c-4.963,0 -8.982,-4.008 -8.982,-8.939c0,-4.94 4.02,-8.94 8.982,-8.94c4.955,0 8.981,4 8.981,8.94c0,4.931 -4.026,8.939 -8.981,8.939z"/>
    <path fill="#F3F8F2" id="svg_8" d="m345.213,461.146l-282.685,0l0,-287.087c0,-2.588 -2.098,-4.686 -4.686,-4.686c-2.587,0 -4.686,2.098 -4.686,4.686l0,291.773c0,2.588 2.098,4.686 4.686,4.686l287.37,0c2.589,0 4.686,-2.098 4.686,-4.686s-2.096,-4.686 -4.685,-4.686z"/>
   </g>
  </g>
  <g id="Layer_1"/>
 </g>
</svg>