<svg id="visual" viewBox="0 0 960 300" width="960" height="300" xmlns="http://www.w3.org/2000/svg" xmlns:xlink="http://www.w3.org/1999/xlink" version="1.1"><rect x="0" y="0" width="960" height="300" fill="#EBEBEB"></rect><path d="M0 117L17.8 105C35.7 93 71.3 69 106.8 67.2C142.3 65.3 177.7 85.7 213.2 97.2C248.7 108.7 284.3 111.3 320 100.2C355.7 89 391.3 64 426.8 56.7C462.3 49.3 497.7 59.7 533.2 59C568.7 58.3 604.3 46.7 640 51.7C675.7 56.7 711.3 78.3 746.8 91.2C782.3 104 817.7 108 853.2 104.5C888.7 101 924.3 90 942.2 84.5L960 79L960 301L942.2 301C924.3 301 888.7 301 853.2 301C817.7 301 782.3 301 746.8 301C711.3 301 675.7 301 640 301C604.3 301 568.7 301 533.2 301C497.7 301 462.3 301 426.8 301C391.3 301 355.7 301 320 301C284.3 301 248.7 301 213.2 301C177.7 301 142.3 301 106.8 301C71.3 301 35.7 301 17.8 301L0 301Z" fill="#69f6fa"></path><path d="M0 139L17.8 128.5C35.7 118 71.3 97 106.8 86C142.3 75 177.7 74 213.2 76.8C248.7 79.7 284.3 86.3 320 90.5C355.7 94.7 391.3 96.3 426.8 95.8C462.3 95.3 497.7 92.7 533.2 96.7C568.7 100.7 604.3 111.3 640 111.5C675.7 111.7 711.3 101.3 746.8 100.2C782.3 99 817.7 107 853.2 116C888.7 125 924.3 135 942.2 140L960 145L960 301L942.2 301C924.3 301 888.7 301 853.2 301C817.7 301 782.3 301 746.8 301C711.3 301 675.7 301 640 301C604.3 301 568.7 301 533.2 301C497.7 301 462.3 301 426.8 301C391.3 301 355.7 301 320 301C284.3 301 248.7 301 213.2 301C177.7 301 142.3 301 106.8 301C71.3 301 35.7 301 17.8 301L0 301Z" fill="#00daff"></path><path d="M0 121L17.8 125.5C35.7 130 71.3 139 106.8 145.8C142.3 152.7 177.7 157.3 213.2 162.3C248.7 167.3 284.3 172.7 320 165C355.7 157.3 391.3 136.7 426.8 126C462.3 115.3 497.7 114.7 533.2 114.2C568.7 113.7 604.3 113.3 640 124.8C675.7 136.3 711.3 159.7 746.8 167.8C782.3 176 817.7 169 853.2 165.5C888.7 162 924.3 162 942.2 162L960 162L960 301L942.2 301C924.3 301 888.7 301 853.2 301C817.7 301 782.3 301 746.8 301C711.3 301 675.7 301 640 301C604.3 301 568.7 301 533.2 301C497.7 301 462.3 301 426.8 301C391.3 301 355.7 301 320 301C284.3 301 248.7 301 213.2 301C177.7 301 142.3 301 106.8 301C71.3 301 35.7 301 17.8 301L0 301Z" fill="#00baff"></path><path d="M0 197L17.8 189.7C35.7 182.3 71.3 167.7 106.8 169.7C142.3 171.7 177.7 190.3 213.2 195.3C248.7 200.3 284.3 191.7 320 191.8C355.7 192 391.3 201 426.8 197.2C462.3 193.3 497.7 176.7 533.2 173.5C568.7 170.3 604.3 180.7 640 179.7C675.7 178.7 711.3 166.3 746.8 167.7C782.3 169 817.7 184 853.2 188C888.7 192 924.3 185 942.2 181.5L960 178L960 301L942.2 301C924.3 301 888.7 301 853.2 301C817.7 301 782.3 301 746.8 301C711.3 301 675.7 301 640 301C604.3 301 568.7 301 533.2 301C497.7 301 462.3 301 426.8 301C391.3 301 355.7 301 320 301C284.3 301 248.7 301 213.2 301C177.7 301 142.3 301 106.8 301C71.3 301 35.7 301 17.8 301L0 301Z" fill="#0095ff"></path><path d="M0 203L17.8 209.3C35.7 215.7 71.3 228.3 106.8 227.5C142.3 226.7 177.7 212.3 213.2 211.7C248.7 211 284.3 224 320 231.2C355.7 238.3 391.3 239.7 426.8 234.8C462.3 230 497.7 219 533.2 212.2C568.7 205.3 604.3 202.7 640 206.3C675.7 210 711.3 220 746.8 225.5C782.3 231 817.7 232 853.2 231.5C888.7 231 924.3 229 942.2 228L960 227L960 301L942.2 301C924.3 301 888.7 301 853.2 301C817.7 301 782.3 301 746.8 301C711.3 301 675.7 301 640 301C604.3 301 568.7 301 533.2 301C497.7 301 462.3 301 426.8 301C391.3 301 355.7 301 320 301C284.3 301 248.7 301 213.2 301C177.7 301 142.3 301 106.8 301C71.3 301 35.7 301 17.8 301L0 301Z" fill="#006af6"></path><path d="M0 282L17.8 275C35.7 268 71.3 254 106.8 253.3C142.3 252.7 177.7 265.3 213.2 271.5C248.7 277.7 284.3 277.3 320 269.5C355.7 261.7 391.3 246.3 426.8 241C462.3 235.7 497.7 240.3 533.2 240.8C568.7 241.3 604.3 237.7 640 239.2C675.7 240.7 711.3 247.3 746.8 252.5C782.3 257.7 817.7 261.3 853.2 264C888.7 266.7 924.3 268.3 942.2 269.2L960 270L960 301L942.2 301C924.3 301 888.7 301 853.2 301C817.7 301 782.3 301 746.8 301C711.3 301 675.7 301 640 301C604.3 301 568.7 301 533.2 301C497.7 301 462.3 301 426.8 301C391.3 301 355.7 301 320 301C284.3 301 248.7 301 213.2 301C177.7 301 142.3 301 106.8 301C71.3 301 35.7 301 17.8 301L0 301Z" fill="#3c31dd"></path></svg>